<svg width="100" height="100" viewBox="0 0 100 100" fill="none" xmlns="http://www.w3.org/2000/svg">
<rect width="100" height="100" fill="#392E4F"/>
<path d="M68.75 69.8076H31.25V90.967H68.75V69.8076Z" fill="#333333"/>
<path d="M31.25 73.4673H53.5625L31.25 84.7767V73.4673Z" fill="black"/>
<path d="M73.7218 95.2827H26.2781C24.4375 95.2827 22.9343 93.7765 22.9343 91.939C22.9343 90.0983 24.4406 88.5952 26.2781 88.5952H73.7187C75.5593 88.5952 77.0624 90.1015 77.0624 91.939C77.0656 93.7765 75.5593 95.2827 73.7218 95.2827Z" fill="#999999"/>
<path d="M93.75 73.4673H6.25C2.8125 73.4673 0 70.6548 0 67.2173V10.9673C0 7.52979 2.8125 4.71729 6.25 4.71729H93.75C97.1875 4.71729 100 7.52979 100 10.9673V67.2173C100 70.6548 97.1875 73.4673 93.75 73.4673Z" fill="white"/>
<path d="M95.728 9.00146H4.29053V69.1827H95.728V9.00146Z" fill="#D9D9D9" fill-opacity="0.8"/>
<path d="M72.7374 16.9268H55.2468V19.4236H72.7374V16.9268Z" fill="white"/>
<path d="M72.7343 23.9233H58.7437V26.4202H72.7343V23.9233Z" fill="#0BA4E0"/>
<path d="M48.25 16.9268H41.2532V19.4236H48.25V16.9268Z" fill="#C8C8C8"/>
<path d="M51.7469 23.9233H44.75V26.4202H51.7469V23.9233Z" fill="#0BA4E0"/>
<path d="M81.4844 45.5767H74.4875V48.0735H81.4844V45.5767Z" fill="white"/>
<path d="M63.9937 45.5767H56.9968V48.0735H63.9937V45.5767Z" fill="#0BA4E0"/>
<path d="M51.7469 51.9204H41.2532V54.4173H51.7469V51.9204Z" fill="white"/>
<path d="M90.2405 16.9268H83.2437V19.4236H90.2405V16.9268Z" fill="#C8C8C8"/>
<path d="M30.7594 37.9141H16.7656V40.4109H30.7594V37.9141Z" fill="#0BA4E0"/>
<path d="M51.7501 37.9141H37.7563V40.4109H51.7501V37.9141Z" fill="white"/>
<path d="M69.2406 37.9141H55.2468V40.4109H69.2406V37.9141Z" fill="white"/>
<path d="M30.7594 51.9204H16.7656V54.4173H30.7594V51.9204Z" fill="white"/>
<path d="M76.253 51.9204H65.7593V54.4173H76.253V51.9204Z" fill="white"/>
<path d="M90.2281 37.9141H76.2344V40.4109H90.2281V37.9141Z" fill="white"/>
<path d="M33.8843 45.5767H20.7312V48.0735H33.8843V45.5767Z" fill="#C8C8C8"/>
<path d="M51.75 58.9048H16.7656V61.4017H51.75V58.9048Z" fill="white"/>
<path d="M76.2345 58.9048H62.2439V61.4017H76.2345V58.9048Z" fill="#8572AA"/>
<path d="M37.7563 30.9204H16.7656V33.4173H37.7563V30.9204Z" fill="#8572AA"/>
<path d="M34.2594 16.9268H13.2688V19.4236H34.2594V16.9268Z" fill="#8572AA"/>
<path d="M30.7594 23.9233H9.7688V26.4202H30.7594V23.9233Z" fill="#C8C8C8"/>
</svg>
