<svg width="136" height="142" viewBox="0 0 136 142" fill="none" xmlns="http://www.w3.org/2000/svg">
<path d="M125.137 80.6027C120.045 76.7052 113.957 71.0217 112.998 68.7753C111.974 66.3667 111.845 57.192 112.363 50.0789C112.38 49.8748 112.433 48.066 112.298 47.3259L110.554 37.7394C112.895 41.12 115.187 44.9363 117.041 48.5335C117.743 49.8939 119.214 50.6916 120.749 50.6916C121.339 50.6916 121.938 50.5758 122.501 50.3303C124.556 49.4426 125.427 47.1933 124.458 45.3111C122.568 41.6381 113.135 24.1865 103.274 20.4521C103.166 20.4189 101.24 19.6344 98.9182 19.443L96.7602 22.2456L93.7994 20.2021C93.7951 20.2066 93.7853 20.2083 93.7736 20.2137C92.5295 20.6993 90.6043 21.9507 89.707 22.6875C87.8856 24.1449 86.6538 25.6399 85.5713 26.9591C83.8472 29.0572 82.8987 30.2116 80.2463 30.8177C76.0253 31.7885 71.7518 29.0155 71.7285 29.0009C69.9045 27.763 67.3321 28.1208 65.9881 29.797C65.8541 29.9677 65.7373 30.2462 65.6372 30.4887L54.4042 25.3106V18.3851H56.0205C58.5279 18.3851 60.5632 16.6669 60.5632 14.549C60.5632 12.4321 58.5258 10.7139 56.0205 10.7139H4.53785C2.03353 10.7139 0 12.4321 0 14.549C0 16.6669 2.03327 18.3851 4.53785 18.3851H6.09136V54.4455H27.8405V86.8771H19.6022L19.5766 91.9801H40.2443L40.2699 86.8771H32.027V54.4498H54.4129L54.4132 26.516L65.2834 31.5665C65.1075 32.8754 65.6228 34.2277 66.8556 35.0648C67.0997 35.2315 72.0874 38.5575 78.417 38.5575C79.6393 38.5575 80.9233 38.4294 82.2263 38.1335C84.8062 37.5429 86.6963 36.5641 88.2001 35.4448L91.0231 50.9468C91.1988 51.8856 91.541 52.7389 92.0179 53.5018C87.7649 60.2089 80.4008 73.7912 80.4589 87.2674C80.4687 89.8862 82.7804 91.9999 85.6259 91.9999C85.6315 91.9999 85.6377 91.9999 85.6453 91.9999C88.5026 91.9893 90.8056 89.8561 90.7928 87.2297C90.7498 75.809 97.5571 63.6087 101.195 57.9175C101.382 57.9175 101.571 57.9019 101.755 57.8944C101.707 63.0602 102.005 69.0116 103.372 72.2291C105.811 77.9743 116.42 86.29 118.522 87.9034C119.485 88.64 120.659 89.0023 121.825 89.0023C123.308 89.0023 124.779 88.4211 125.805 87.2909C127.629 85.274 127.333 82.2804 125.137 80.6027ZM53.062 53.3022H53.0602H7.44585V18.3851H53.0605V24.8937L46.1236 21.7353L45.7248 22.8195L53.0587 26.1017L53.0628 53.302H53.062V53.3022ZM100.241 41.1953L100.193 41.2036L97.1093 38.4259L96.8014 22.6011L96.8519 22.594L102.181 37.6479L100.241 41.1953Z" fill="#392E4F"/>
<path d="M94.4763 19.4205C100.312 19.4205 105.043 15.0729 105.043 9.71025C105.043 4.34784 100.312 0 94.4763 0C88.6432 0 83.9106 4.34784 83.9106 9.71025C83.9106 15.0729 88.6421 19.4205 94.4763 19.4205Z" fill="#392E4F"/>
<path d="M41.45 26.0928C39.8606 26.0928 38.5722 27.2768 38.5722 28.7375C38.5722 29.5018 38.9272 30.1885 39.4912 30.6713L36.5924 36.3967C36.2264 36.3685 35.8553 36.4094 35.5026 36.5137L30.1707 30.2648C30.3441 29.9211 30.4319 29.5593 30.4319 29.1857C30.4319 27.729 29.142 26.5436 27.5567 26.5436C25.9719 26.5436 24.6828 27.7288 24.6828 29.1857C24.6828 29.6822 24.8441 30.1748 25.1423 30.6014L19.0166 36.6029C18.6624 36.4614 18.2933 36.3901 17.9162 36.3901C16.3309 36.3901 15.0413 37.5746 15.0413 39.0306C15.0413 40.4875 16.3309 41.673 17.9162 41.673C19.5015 41.673 20.7914 40.4877 20.7914 39.0306C20.7914 38.6285 20.6874 38.2309 20.4884 37.8661L26.766 31.7224C27.4148 31.8994 28.1172 31.853 28.7409 31.588L33.9257 37.6646C33.6463 38.0815 33.4998 38.5494 33.4998 39.0325C33.4998 40.4894 34.7894 41.6748 36.3747 41.6748C37.958 41.6748 39.2458 40.4896 39.2458 39.0325C39.2458 38.3432 38.9467 37.6865 38.4157 37.1924L41.3595 31.3784C41.3898 31.3792 41.4195 31.3827 41.45 31.3827C43.0393 31.3827 44.3277 30.1986 44.3277 28.738C44.3277 27.2773 43.0393 26.0928 41.45 26.0928Z" fill="#392E4F"/>
<path d="M134.137 130.603C129.045 126.705 122.957 121.022 121.998 118.775C120.974 116.367 120.845 107.192 121.363 100.079C121.38 99.8748 121.433 98.066 121.298 97.3259L119.554 87.7394C121.895 91.12 124.187 94.9363 126.041 98.5335C126.743 99.8939 128.214 100.692 129.749 100.692C130.339 100.692 130.938 100.576 131.501 100.33C133.556 99.4426 134.427 97.1933 133.458 95.3111C131.568 91.6381 122.135 74.1865 112.274 70.4521C112.166 70.4189 110.24 69.6344 107.918 69.443L105.76 72.2456L102.799 70.2021C102.795 70.2066 102.785 70.2083 102.774 70.2137C101.529 70.6993 99.6043 71.9507 98.707 72.6875C96.8856 74.1449 95.6538 75.6399 94.5713 76.9591C92.8472 79.0572 91.8987 80.2116 89.2463 80.8177C85.0253 81.7885 80.7518 79.0155 80.7285 79.0009C78.9045 77.763 76.3321 78.1208 74.9881 79.797C74.8541 79.9677 74.7373 80.2462 74.6372 80.4887L63.4042 75.3106V68.3851H65.0205C67.5279 68.3851 69.5632 66.6669 69.5632 64.549C69.5632 62.4321 67.5258 60.7139 65.0205 60.7139H13.5378C11.0335 60.7139 9 62.4321 9 64.549C9 66.6669 11.0333 68.3851 13.5378 68.3851H15.0914V104.446H36.8405V136.877H28.6022L28.5766 141.98H49.2443L49.2699 136.877H41.027V104.45H63.4129L63.4132 76.516L74.2834 81.5665C74.1075 82.8754 74.6228 84.2277 75.8556 85.0648C76.0997 85.2315 81.0874 88.5575 87.417 88.5575C88.6393 88.5575 89.9233 88.4294 91.2263 88.1335C93.8062 87.5429 95.6963 86.5641 97.2001 85.4448L100.023 100.947C100.199 101.886 100.541 102.739 101.018 103.502C96.7649 110.209 89.4008 123.791 89.4589 137.267C89.4687 139.886 91.7804 142 94.6259 142C94.6315 142 94.6377 142 94.6453 142C97.5026 141.989 99.8056 139.856 99.7928 137.23C99.7498 125.809 106.557 113.609 110.195 107.917C110.382 107.917 110.571 107.902 110.755 107.894C110.707 113.06 111.005 119.012 112.372 122.229C114.811 127.974 125.42 136.29 127.522 137.903C128.485 138.64 129.659 139.002 130.825 139.002C132.308 139.002 133.779 138.421 134.805 137.291C136.629 135.274 136.333 132.28 134.137 130.603ZM62.062 103.302H62.0602H16.4459V68.3851H62.0605V74.8937L55.1236 71.7353L54.7248 72.8195L62.0587 76.1017L62.0628 103.302H62.062V103.302ZM109.241 91.1953L109.193 91.2036L106.109 88.4259L105.801 72.6011L105.852 72.594L111.181 87.6479L109.241 91.1953Z" fill="white"/>
<path d="M103.476 69.4205C109.312 69.4205 114.043 65.0729 114.043 59.7103C114.043 54.3478 109.312 50 103.476 50C97.6432 50 92.9106 54.3478 92.9106 59.7103C92.9106 65.0729 97.6421 69.4205 103.476 69.4205Z" fill="white"/>
<path d="M50.45 76.0928C48.8606 76.0928 47.5722 77.2768 47.5722 78.7375C47.5722 79.5018 47.9272 80.1885 48.4912 80.6713L45.5924 86.3967C45.2264 86.3685 44.8553 86.4094 44.5026 86.5137L39.1707 80.2648C39.3441 79.9211 39.4319 79.5593 39.4319 79.1857C39.4319 77.729 38.142 76.5436 36.5567 76.5436C34.9719 76.5436 33.6828 77.7288 33.6828 79.1857C33.6828 79.6822 33.8441 80.1748 34.1423 80.6014L28.0166 86.6029C27.6624 86.4614 27.2933 86.3901 26.9162 86.3901C25.3309 86.3901 24.0413 87.5746 24.0413 89.0306C24.0413 90.4875 25.3309 91.673 26.9162 91.673C28.5015 91.673 29.7914 90.4877 29.7914 89.0306C29.7914 88.6285 29.6874 88.2309 29.4884 87.8661L35.766 81.7224C36.4148 81.8994 37.1172 81.853 37.7409 81.588L42.9257 87.6646C42.6463 88.0815 42.4998 88.5494 42.4998 89.0325C42.4998 90.4894 43.7894 91.6748 45.3747 91.6748C46.958 91.6748 48.2458 90.4896 48.2458 89.0325C48.2458 88.3432 47.9467 87.6865 47.4157 87.1924L50.3595 81.3784C50.3898 81.3792 50.4195 81.3827 50.45 81.3827C52.0393 81.3827 53.3277 80.1986 53.3277 78.738C53.3277 77.2773 52.0393 76.0928 50.45 76.0928Z" fill="white"/>
</svg>
