<svg width="185" height="143" viewBox="0 0 185 143" fill="none" xmlns="http://www.w3.org/2000/svg">
<path d="M89.6865 69.9458H1.52011C0.608044 69.9458 0 70.4328 0 71.1634V127.172C0 127.902 0.608044 128.389 1.52011 128.389H7.60055V141.783C7.60055 142.513 8.20859 143 9.12066 143H82.0859C82.998 143 83.606 142.513 83.606 141.783V128.389H89.6865C90.5985 128.389 91.2066 127.902 91.2066 127.172V71.1634C91.2066 70.4328 90.5985 69.9458 89.6865 69.9458ZM88.1664 72.3809V79.6864H3.04022V72.3809H88.1664ZM80.5658 99.1675H10.6408V91.8621H80.5658V99.1675ZM10.6408 140.565V101.603H80.5658V140.565H10.6408ZM83.606 125.954V90.6445C83.606 89.914 82.998 89.427 82.0859 89.427H9.12066C8.20859 89.427 7.60055 89.914 7.60055 90.6445V125.954H3.04022V82.1215H88.1664V125.954H83.606Z" fill="#392E4F"/>
<path d="M12.1611 74.8164H6.08063V77.2516H12.1611V74.8164Z" fill="#392E4F"/>
<path d="M21.2816 74.8164H15.2011V77.2516H21.2816V74.8164Z" fill="#392E4F"/>
<path d="M19.7612 94.2974H13.6808V96.7325H19.7612V94.2974Z" fill="#392E4F"/>
<path d="M28.8822 94.2974H22.8017V96.7325H28.8822V94.2974Z" fill="#392E4F"/>
<path d="M85.126 74.8164H82.0858V77.2516H85.126V74.8164Z" fill="#392E4F"/>
<path d="M79.0456 74.8164H76.0053V77.2516H79.0456V74.8164Z" fill="#392E4F"/>
<path d="M77.5256 94.2974H74.4854V96.7325H77.5256V94.2974Z" fill="#392E4F"/>
<path d="M71.4452 94.2974H68.405V96.7325H71.4452V94.2974Z" fill="#392E4F"/>
<path d="M16.7213 127.172H41.043C41.9551 127.172 42.5631 126.685 42.5631 125.954V106.473C42.5631 105.742 41.9551 105.255 41.043 105.255H16.7213C15.8092 105.255 15.2011 105.742 15.2011 106.473V125.954C15.2011 126.685 15.8092 127.172 16.7213 127.172ZM18.2414 117.431H27.362V124.737H18.2414V117.431ZM30.4022 124.737V117.431H39.5229V124.737H30.4022ZM39.5229 114.996H30.4022V107.691H39.5229V114.996ZM27.362 107.691V114.996H18.2414V107.691H27.362Z" fill="#392E4F"/>
<path d="M53.2036 105.255H47.1232V107.691H53.2036V105.255Z" fill="#392E4F"/>
<path d="M50.1634 110.126H47.1232V112.561H50.1634V110.126Z" fill="#392E4F"/>
<path d="M56.244 110.126H53.2038V112.561H56.244V110.126Z" fill="#392E4F"/>
<path d="M62.3245 110.126H59.2842V112.561H62.3245V110.126Z" fill="#392E4F"/>
<path d="M68.4049 110.126H65.3647V112.561H68.4049V110.126Z" fill="#392E4F"/>
<path d="M74.4855 110.126H71.4453V112.561H74.4855V110.126Z" fill="#392E4F"/>
<path d="M63.8447 105.255H57.7643V107.691H63.8447V105.255Z" fill="#392E4F"/>
<path d="M74.4854 105.255H68.405V107.691H74.4854V105.255Z" fill="#392E4F"/>
<path d="M74.4852 114.996H47.1232V117.431H74.4852V114.996Z" fill="#392E4F"/>
<path d="M74.4852 119.866H47.1232V122.301H74.4852V119.866Z" fill="#392E4F"/>
<path d="M74.4852 124.737H47.1232V127.172H74.4852V124.737Z" fill="#392E4F"/>
<path d="M18.2414 132.042H15.2011V134.477H18.2414V132.042Z" fill="#392E4F"/>
<path d="M24.322 132.042H21.2818V134.477H24.322V132.042Z" fill="#392E4F"/>
<path d="M30.402 132.042H27.3618V134.477H30.402V132.042Z" fill="#392E4F"/>
<path d="M74.4852 132.042H33.4422V134.477H74.4852V132.042Z" fill="#392E4F"/>
<path d="M139.095 66.9092C134.095 66.9092 129.399 68.721 125.874 72.0103C122.342 75.2995 120.396 79.6742 120.396 84.3317C120.396 88.9848 122.34 93.3617 125.874 96.6554C129.406 99.9447 134.1 101.756 139.095 101.756C144.089 101.756 148.785 99.9447 152.317 96.6554C155.848 93.3615 157.793 88.9848 157.793 84.3317C157.793 79.6762 155.849 75.2998 152.319 72.0125C148.79 68.721 144.093 66.9092 139.095 66.9092ZM150.057 94.5471C147.128 97.275 143.237 98.7769 139.095 98.7769C134.956 98.7769 131.061 97.275 128.134 94.5471C125.205 91.8194 123.593 88.1915 123.593 84.3317C123.593 80.472 125.204 76.8439 128.134 74.1184C131.061 71.3885 134.956 69.8865 139.095 69.8865C143.237 69.8865 147.128 71.3885 150.057 74.1184C152.984 76.8439 154.595 80.472 154.595 84.3317C154.596 88.1915 152.984 91.8194 150.057 94.5471Z" fill="#392E4F"/>
<path d="M182.231 78.6223L172.267 77.2765C171.643 77.2319 171.105 76.8664 170.863 76.325L167.635 69.0622C167.393 68.523 167.494 67.9079 167.902 67.4666L173.862 60.0032C174.811 58.9669 174.749 57.4268 173.714 56.4643L168.998 52.0696C168.455 51.5613 167.738 51.3052 167.021 51.3052C166.375 51.3052 165.727 51.5125 165.203 51.9315L157.192 57.4873C156.889 57.7302 156.504 57.8572 156.117 57.8572C155.901 57.8572 155.686 57.817 155.483 57.7392L147.685 54.7261C147.109 54.5054 146.714 53.9972 146.664 53.42L145.217 44.1339C145.105 42.7743 143.89 41.7271 142.431 41.7271H135.76C134.299 41.7271 133.084 42.7743 132.972 44.1339L131.523 53.42C131.475 53.9972 131.083 54.5054 130.504 54.7281L122.706 57.7389C122.5 57.8168 122.285 57.8569 122.07 57.8569C121.683 57.8569 121.3 57.73 120.994 57.487L112.988 51.9335C112.464 51.5145 111.817 51.305 111.173 51.305C110.453 51.305 109.736 51.5635 109.191 52.0715L104.475 56.4641C103.442 57.429 103.38 58.9666 104.327 60.003L110.286 67.4663C110.69 67.9074 110.795 68.5225 110.556 69.062L107.326 76.327C107.091 76.8662 106.546 77.2319 105.927 77.2763L95.9577 78.6245C94.5041 78.7316 93.3801 79.8636 93.3801 81.2253V87.4383C93.3801 88.8024 94.5041 89.9344 95.9577 90.041L105.927 91.3873C106.546 91.4341 107.092 91.8018 107.326 92.3388L110.556 99.6058C110.798 100.141 110.69 100.76 110.286 101.201L104.327 108.665C103.38 109.696 103.442 111.239 104.475 112.201L109.191 116.596C109.736 117.104 110.453 117.36 111.171 117.36C111.817 117.36 112.465 117.153 112.988 116.734L120.994 111.178C121.3 110.935 121.683 110.811 122.07 110.811C122.286 110.811 122.501 110.848 122.706 110.929L130.504 113.94C131.082 114.163 131.477 114.666 131.525 115.248L132.971 124.534C133.084 125.889 134.299 126.939 135.76 126.939H142.431C143.892 126.939 145.104 125.889 145.219 124.534L146.664 115.248C146.714 114.667 147.108 114.163 147.685 113.94L155.483 110.929C155.688 110.849 155.903 110.811 156.118 110.811C156.506 110.811 156.891 110.936 157.194 111.179L165.203 116.735C165.727 117.154 166.374 117.361 167.02 117.361C167.738 117.361 168.455 117.104 168.998 116.597L173.713 112.202C174.751 111.239 174.811 109.697 173.861 108.665L167.902 101.202C167.501 100.761 167.393 100.141 167.635 99.6063L170.863 92.3393C171.104 91.8021 171.642 91.4344 172.266 91.3878L182.231 90.0415C183.687 89.9347 184.811 88.8026 184.811 87.4433V81.2257C184.811 79.8636 183.687 78.7316 182.231 78.6223ZM181.614 87.1128L171.884 88.4278C170.117 88.6038 168.606 89.6535 167.91 91.2001L164.684 98.4559C163.993 99.998 164.263 101.741 165.384 103.038L171.205 110.327L166.987 114.258L159.168 108.834C158.307 108.186 157.228 107.829 156.119 107.829C155.471 107.829 154.84 107.949 154.261 108.177L146.456 111.189C144.803 111.831 143.677 113.242 143.488 114.891L142.078 123.959H136.114L134.701 114.893C134.514 113.244 133.39 111.831 131.728 111.185L123.94 108.181C123.344 107.947 122.716 107.829 122.07 107.829C120.965 107.829 119.889 108.185 119.026 108.831L111.202 114.258L106.986 110.327L112.804 103.037C113.928 101.74 114.198 99.9953 113.51 98.4641L110.286 91.2127C109.607 89.6617 108.091 88.6053 106.312 88.427L96.577 87.112V81.5495L106.307 80.2348C108.093 80.061 109.612 79.0001 110.279 77.4669L113.505 70.2109C114.198 68.6688 113.928 66.9238 112.804 65.6292L106.984 58.3374L111.204 54.4063L119.021 59.8304C119.884 60.481 120.96 60.8355 122.07 60.8355C122.711 60.8355 123.337 60.7195 123.93 60.4901L131.726 57.4793C133.383 56.8419 134.514 55.427 134.698 53.7733L136.113 44.7076H142.077L143.488 53.7778C143.679 55.4312 144.81 56.8444 146.46 57.4771L154.258 60.4901C154.849 60.7172 155.475 60.8355 156.116 60.8355C157.228 60.8355 158.306 60.479 159.167 59.8304L166.987 54.4063L171.205 58.3374L165.389 65.6202C164.261 66.9129 163.988 68.6598 164.681 70.1997L167.91 77.4669C168.598 79.009 170.115 80.0607 171.886 80.2348L181.614 81.5495L181.614 87.1128Z" fill="#392E4F"/>
<path d="M94.8718 64.5646L99.7836 62.8931C100.862 62.5276 101.453 61.4512 101.146 60.4237L99.5327 53.2215C99.4034 52.7757 99.5492 52.3076 99.9081 52.0002L104.784 47.8286C105.025 47.6213 105.341 47.5122 105.659 47.5122C105.814 47.5122 105.97 47.5368 106.116 47.5856L113.617 49.6739C113.873 49.7629 114.136 49.8053 114.394 49.8031C115.222 49.8008 116.008 49.3573 116.377 48.6219L118.579 44.2029C119.069 43.2335 118.667 42.0814 117.67 41.5575L111.13 37.555C110.704 37.3301 110.448 36.9044 110.472 36.4453L110.755 30.2835C110.776 29.8266 111.07 29.4255 111.51 29.2341L118.464 25.7442C119.509 25.3029 120.009 24.1843 119.616 23.1837L117.825 18.6042C117.503 17.7771 116.661 17.258 115.757 17.2604C115.563 17.2627 115.367 17.2847 115.173 17.3363L107.445 18.836C107.33 18.8673 107.213 18.8829 107.098 18.8829C106.739 18.8851 106.39 18.7425 106.137 18.4887L101.665 13.9467C101.33 13.6105 101.227 13.131 101.402 12.7055L103.64 5.71226C104.04 4.71188 103.552 3.59745 102.509 3.14498L97.7673 1.08818C97.4659 0.958762 97.1477 0.896532 96.8346 0.896532C96.0671 0.900747 95.3305 1.27983 94.9314 1.93931L90.6342 8.03658C90.4022 8.41541 89.9718 8.6492 89.5055 8.65143H89.4483L82.834 8.38417C82.3461 8.36185 81.906 8.0879 81.7054 7.67559L77.9635 1.199C77.5977 0.445802 76.7964 -0.00418541 75.9571 2.93481e-05C75.7107 2.93481e-05 75.4598 0.0401935 75.2159 0.122505L70.3042 1.79601C69.2257 2.1617 68.6327 3.23572 68.9437 4.26313L70.5553 11.4679C70.6867 11.907 70.5409 12.377 70.1799 12.6847L65.3041 16.8566C65.0581 17.0661 64.7471 17.1754 64.4265 17.1776C64.2735 17.1776 64.1182 17.1509 63.9673 17.0973L56.4685 15.016C56.2128 14.9245 55.9497 14.8823 55.6914 14.8823C54.8664 14.8865 54.0819 15.3281 53.7116 16.0635L51.5091 20.4847C51.0212 21.4519 51.4205 22.6018 52.4179 23.1299L58.958 27.1346C59.386 27.3575 59.6395 27.7832 59.6153 28.2357L59.3333 34.4018C59.3142 34.8565 59.0152 35.2599 58.5752 35.4516L51.6216 38.9414C50.5791 39.3824 50.0792 40.4991 50.4713 41.4997L52.2625 46.0792C52.5876 46.906 53.4293 47.4297 54.3333 47.4274C54.5246 47.4252 54.7182 47.3984 54.9119 47.3473L62.6452 45.8454C62.7577 45.8164 62.8723 45.8008 62.9849 45.8008C63.3459 45.8008 63.6973 45.9391 63.9484 46.193L68.4225 50.7392C68.7572 51.0734 68.8551 51.5549 68.6856 51.9828L66.4473 58.9714C66.0482 59.972 66.5382 61.0884 67.5784 61.5434L72.3178 63.5977C72.6213 63.7271 72.9395 63.7893 73.2526 63.7893C74.0204 63.7849 74.7567 63.4083 75.1536 62.7488L79.4508 56.6538C79.6802 56.2749 80.1061 56.0384 80.5674 56.0384H80.6392L87.2511 56.3037C87.7411 56.3215 88.1788 56.5955 88.3823 57.01L92.1245 63.4906C92.4927 64.2393 93.2913 64.6896 94.1331 64.6873C94.377 64.6849 94.6279 64.6469 94.8718 64.5646ZM91.2323 55.6574C90.5031 54.2779 89.0396 53.3886 87.3871 53.3283L80.7993 53.0655C80.7179 53.0611 80.6368 53.0566 80.5554 53.0566C79.0034 53.0655 77.5495 53.8321 76.7411 55.0668L72.8772 60.5512L69.716 59.1806L71.7296 52.9029C72.2579 51.4433 71.8966 49.8499 70.7801 48.7266L66.3135 44.1873C65.4595 43.3136 64.2427 42.8167 62.9726 42.8232C62.6188 42.8232 62.2647 42.8633 61.9229 42.9437L54.9667 44.2941L53.7757 41.2454L60.0311 38.1076C61.5113 37.4191 62.4656 36.0528 62.5254 34.5266L62.8101 28.3782C62.8888 26.8361 62.0639 25.4009 60.6507 24.603L54.773 21.0061L56.2413 18.06L62.987 19.9363C63.4558 20.0836 63.9434 20.1547 64.4409 20.1547C65.5598 20.1503 66.629 19.7628 67.4659 19.0495L72.3273 14.891C73.5588 13.8482 74.0658 12.2883 73.6665 10.7905L72.2199 4.31445L75.491 3.20027L78.8552 9.02977C79.587 10.405 81.0457 11.2941 82.6983 11.3585L89.3195 11.6261L89.518 11.6305C91.082 11.6238 92.5382 10.8528 93.3464 9.61587L97.2108 4.13148L100.372 5.50177L98.3608 11.7753C97.8253 13.2371 98.1842 14.8283 99.3079 15.9559L103.782 20.4999C104.635 21.3711 105.85 21.8659 107.11 21.8592C107.469 21.857 107.823 21.8171 108.172 21.7412L115.121 20.3885L116.312 23.4393L110.054 26.5815C108.593 27.2591 107.641 28.6095 107.56 30.1561L107.275 36.3C107.196 37.8446 108.021 39.2796 109.437 40.0819L115.312 43.6808L113.844 46.6291L107.1 44.7506C106.632 44.6033 106.144 44.5299 105.644 44.5321C104.518 44.5341 103.442 44.931 102.622 45.6329L97.741 49.807C96.5287 50.8498 96.0288 52.4055 96.4188 53.8941L97.8703 60.3744L94.5965 61.4844L91.2323 55.6574Z" fill="#392E4F"/>
<path d="M98.9631 38.3795C100.692 34.9118 100.871 31.0253 99.4654 27.4373C98.057 23.8473 95.2379 20.9813 91.5265 19.3744C89.4536 18.472 87.2535 18.0195 84.9888 18.0284C83.2194 18.0351 81.4689 18.3292 79.7855 18.9021C75.9286 20.2124 72.8535 22.84 71.1246 26.3052C69.3957 29.7663 69.2164 33.6503 70.6199 37.2472C72.031 40.8397 74.8528 43.7055 78.5639 45.3123C80.6347 46.2103 82.8345 46.6647 85.0989 46.6561C86.871 46.6471 88.6214 46.3531 90.3073 45.7824C94.1546 44.4723 97.2273 41.8426 98.9631 38.3795ZM89.2094 42.9835C87.868 43.4404 86.474 43.67 85.0846 43.6745C83.3197 43.6834 81.5597 43.3266 79.9124 42.6114C76.9688 41.3343 74.7402 39.0655 73.6234 36.2243C72.5141 33.3786 72.6524 30.3033 74.0227 27.562C75.3931 24.8164 77.8296 22.7351 80.8784 21.7012C82.2221 21.2421 83.6163 21.0125 85.0034 21.008C86.7683 21.0011 88.5257 21.3579 90.1732 22.0734C93.1144 23.3502 95.3478 25.619 96.4622 28.4602C97.5742 31.3039 97.4326 34.377 96.065 37.1225C94.6901 39.8658 92.2583 41.9452 89.2094 42.9835Z" fill="#392E4F"/>
</svg>
