<svg width="260" height="130" viewBox="0 0 260 130" fill="none" xmlns="http://www.w3.org/2000/svg">
<path d="M254.525 0H148.939C144.774 0 139.33 0.435499 139.33 7.57073V80.7347C139.33 84.5828 140.392 87.1 147.053 87.1H254.525C258.69 87.1 260 84.5828 260 80.7347V7.57073C260 3.72265 258.69 0 254.525 0ZM252.458 6.968V15.678H146.872V6.968H252.458ZM146.872 80.132V19.162H252.458V80.132H146.872Z" fill="#392E4F"/>
<path d="M189.116 26.1299H159.303C155.121 26.1299 154.414 27.8719 154.414 31.6503V68.2323C154.414 70.1554 155.334 71.4219 157.417 71.4219H189.118C191.199 71.4219 192.125 71.8974 192.125 69.9743V31.6503C192.123 29.7254 192.949 26.1299 189.116 26.1299ZM188.352 67.9379H158.185V29.6139H188.352V67.9379Z" fill="#392E4F"/>
<path d="M197.466 29.6139H220.092C221.135 29.6139 221.978 28.8352 221.978 27.8719C221.978 26.9086 221.135 26.1299 220.092 26.1299H197.466C196.424 26.1299 195.581 26.9086 195.581 27.8719C195.581 28.8352 196.424 29.6139 197.466 29.6139Z" fill="#392E4F"/>
<path d="M244.604 26.1299H227.634C226.592 26.1299 225.749 26.9086 225.749 27.8719C225.749 28.8352 226.592 29.6139 227.634 29.6139H244.604C245.646 29.6139 246.489 28.8352 246.489 27.8719C246.489 26.9086 245.646 26.1299 244.604 26.1299Z" fill="#392E4F"/>
<path d="M197.466 38.3238H208.779C209.822 38.3238 210.665 37.5452 210.665 36.5818C210.665 35.6185 209.822 34.8398 208.779 34.8398H197.466C196.424 34.8398 195.581 35.6185 195.581 36.5818C195.581 37.5452 196.424 38.3238 197.466 38.3238Z" fill="#392E4F"/>
<path d="M161.643 13.9361H163.528C164.571 13.9361 165.414 13.1575 165.414 12.1941C165.414 11.2308 164.571 10.4521 163.528 10.4521H161.643C160.6 10.4521 159.758 11.2308 159.758 12.1941C159.758 13.1575 160.6 13.9361 161.643 13.9361Z" fill="#392E4F"/>
<path d="M235.176 13.9361H237.061C238.104 13.9361 238.947 13.1575 238.947 12.1941C238.947 11.2308 238.104 10.4521 237.061 10.4521H235.176C234.133 10.4521 233.29 11.2308 233.29 12.1941C233.29 13.1575 234.133 13.9361 235.176 13.9361Z" fill="#392E4F"/>
<path d="M229.519 34.8398H216.321C215.278 34.8398 214.436 35.6185 214.436 36.5818C214.436 37.5452 215.278 38.3238 216.321 38.3238H229.519C230.562 38.3238 231.405 37.5452 231.405 36.5818C231.405 35.6185 230.562 34.8398 229.519 34.8398Z" fill="#392E4F"/>
<path d="M197.466 47.0343H216.321C217.364 47.0343 218.207 46.2556 218.207 45.2923C218.207 44.329 217.364 43.5503 216.321 43.5503H197.466C196.424 43.5503 195.581 44.329 195.581 45.2923C195.581 46.2556 196.424 47.0343 197.466 47.0343Z" fill="#392E4F"/>
<path d="M221.977 45.2923C221.977 46.2556 222.82 47.0343 223.863 47.0343H237.061C238.104 47.0343 238.947 46.2556 238.947 45.2923C238.947 44.329 238.104 43.5503 237.061 43.5503H223.863C222.82 43.5503 221.977 44.329 221.977 45.2923Z" fill="#392E4F"/>
<path d="M244.603 34.8398H237.061C236.019 34.8398 235.176 35.6185 235.176 36.5818C235.176 37.5452 236.019 38.3238 237.061 38.3238H244.603C245.646 38.3238 246.489 37.5452 246.489 36.5818C246.489 35.6185 245.646 34.8398 244.603 34.8398Z" fill="#392E4F"/>
<path d="M197.466 60.9698H212.55C213.593 60.9698 214.436 60.1912 214.436 59.2278C214.436 58.2645 213.593 57.4858 212.55 57.4858H197.466C196.424 57.4858 195.581 58.2645 195.581 59.2278C195.581 60.1912 196.424 60.9698 197.466 60.9698Z" fill="#392E4F"/>
<path d="M244.603 57.4858H220.092C219.049 57.4858 218.206 58.2645 218.206 59.2278C218.206 60.1912 219.049 60.9698 220.092 60.9698H244.603C245.646 60.9698 246.488 60.1912 246.488 59.2278C246.488 58.2645 245.646 57.4858 244.603 57.4858Z" fill="#392E4F"/>
<path d="M225.748 66.1963H197.466C196.424 66.1963 195.581 66.975 195.581 67.9383C195.581 68.9016 196.424 69.6803 197.466 69.6803H225.748C226.791 69.6803 227.634 68.9016 227.634 67.9383C227.634 66.975 226.791 66.1963 225.748 66.1963Z" fill="#392E4F"/>
<path d="M244.603 66.1963H233.29C232.248 66.1963 231.405 66.975 231.405 67.9383C231.405 68.9016 232.248 69.6803 233.29 69.6803H244.603C245.646 69.6803 246.489 68.9016 246.489 67.9383C246.489 66.975 245.646 66.1963 244.603 66.1963Z" fill="#392E4F"/>
<path d="M85.1933 73.1662C97.7952 73.1662 107.925 62.5878 107.925 49.587C107.94 36.5481 97.7952 26 85.1933 26C72.6789 26 62.5201 36.5481 62.5201 49.587C62.5201 62.6033 72.6793 73.1662 85.1933 73.1662Z" fill="#392E4F"/>
<path d="M103.427 77.0088H67.0181C60.5087 77.0088 55.1768 83.2056 55.1768 90.807V128.777C55.1768 129.194 55.3816 129.567 55.4037 130H115.02C115.064 129.567 115.232 129.195 115.232 128.777V90.807C115.254 83.2056 109.922 77.0088 103.427 77.0088Z" fill="#392E4F"/>
<path d="M146.339 84.4204C156.454 84.4204 164.565 75.9684 164.565 65.5266C164.565 55.0848 156.454 46.6177 146.339 46.6177C136.296 46.6177 128.171 55.0848 128.171 65.5266C128.149 75.961 136.297 84.4204 146.339 84.4204Z" fill="#392E4F"/>
<path d="M160.959 87.5034H131.783C126.546 87.5034 122.268 92.4698 122.268 98.5831V129.005C122.268 129.331 122.421 129.643 122.443 130H170.262C170.284 129.643 170.43 129.331 170.43 129.005V98.5831C170.452 92.4698 166.181 87.5034 160.959 87.5034Z" fill="#392E4F"/>
<path d="M24.0777 84.4204C34.1782 84.4204 42.2969 75.9684 42.2969 65.5266C42.2969 55.0848 34.1782 46.6177 24.0777 46.6177C14.0283 46.6177 5.90253 55.0848 5.90253 65.5266C5.90253 75.9684 14.0283 84.4204 24.0777 84.4204Z" fill="#392E4F"/>
<path d="M38.6909 87.5034H9.48615C4.26414 87.5034 0 92.4698 0 98.5831V129.005C0 129.331 0.153598 129.643 0.182758 130H48.0017C48.0238 129.643 48.1628 129.331 48.1628 129.005V98.5831C48.1774 92.4698 43.9058 87.5034 38.6909 87.5034Z" fill="#392E4F"/>
</svg>
