<svg width="243" height="196" viewBox="0 0 243 196" fill="none" xmlns="http://www.w3.org/2000/svg">
<path d="M129.562 102.319H89.4375V122.42H129.562V102.319Z" fill="#333333"/>
<path d="M89.4375 105.795H113.312L89.4375 116.539V105.795Z" fill="black"/>
<path d="M134.882 126.517H84.1176C82.1481 126.517 80.5398 125.086 80.5398 123.341C80.5398 121.592 82.1515 120.164 84.1176 120.164H134.879C136.849 120.164 138.457 121.595 138.457 123.341C138.46 125.089 136.849 126.517 134.882 126.517Z" fill="#999999"/>
<path d="M156.312 105.795H62.6875C59.0094 105.795 56 103.124 56 99.8579V46.4204C56 43.1548 59.0094 40.4829 62.6875 40.4829H156.312C159.991 40.4829 163 43.1548 163 46.4204V99.8579C163 103.124 159.991 105.795 156.312 105.795Z" fill="#D6D6D6"/>
<path d="M61.0909 101.225V45.0527H157.929V101.225H61.0909Z" fill="#333333" stroke="black"/>
<path d="M81.0079 72.4203L100.198 64.1523V67.3853L84.977 73.6761V73.7473L100.198 80.0737V83.2741L81.0079 75.0061V72.4203Z" fill="#8572AA"/>
<path d="M103.006 84.7111L112.887 58.6514H116.368L106.487 84.7111H103.006Z" fill="#8572AA"/>
<path d="M137.992 75.0803L118.802 83.277V80.0767L134.271 73.7503V73.6791L118.802 67.3527V64.1523L137.992 72.3491V75.0803Z" fill="#8572AA"/>
<path d="M233.511 5.32178H155.489C150.257 5.32178 146 9.22752 146 14.0283V60.463C146 65.2638 150.257 69.1695 155.489 69.1695H183.543L191.761 82.2292C192.977 84.1631 196.025 84.1598 197.239 82.2292L205.457 69.1695H233.511C238.743 69.1695 243 65.2638 243 60.463V14.0283C243 9.22752 238.743 5.32178 233.511 5.32178ZM236.674 60.4632C236.674 62.0634 235.255 63.3654 233.511 63.3654H203.631C202.501 63.3654 201.457 63.9185 200.892 64.8165L194.5 74.974L188.108 64.8164C187.543 63.9184 186.499 63.3652 185.369 63.3652H155.489C153.745 63.3652 152.326 62.0633 152.326 60.463V14.0283C152.326 12.428 153.745 11.1261 155.489 11.1261H233.511C235.255 11.1261 236.674 12.428 236.674 14.0283V60.4632Z" fill="#8572AA"/>
<path d="M214.338 24.799L205.346 28.2935C203.105 29.1645 202.735 31.9393 204.674 33.2823L205.817 34.0738L198.631 42.3631L188.497 30.6737C187.232 29.2139 184.812 29.2141 183.546 30.6737L170.938 45.2186C169.85 46.4729 170.077 48.2988 171.444 49.2966C172.812 50.2947 174.802 50.0858 175.889 48.8318L186.022 37.1424L196.155 48.8318C197.421 50.2916 199.841 50.2914 201.106 48.8318L210.868 37.5717L212.482 38.6894C214.411 40.0255 217.226 38.9594 217.526 36.7292L218.726 27.8213C219.027 25.5897 216.568 23.9234 214.338 24.799Z" fill="#563589"/>
</svg>
