<svg width="290" height="290" viewBox="0 0 290 290" fill="none" xmlns="http://www.w3.org/2000/svg">
<g clip-path="url(#clip0_89_253)">
<path d="M156.856 190.06C153.541 188.126 147.028 184.294 139.502 179.859C139.33 179.758 139.188 179.614 139.088 179.441C138.989 179.268 138.937 179.073 138.936 178.874V167.084L84.7778 198.394V209.197C84.7785 209.397 84.8316 209.594 84.9319 209.767C85.0322 209.941 85.1761 210.085 85.3494 210.186C94.2252 215.343 101.754 219.719 104.787 221.473C104.961 221.575 105.158 221.628 105.359 221.627C105.56 221.626 105.757 221.57 105.929 221.466C112.257 217.676 141.54 200.865 156.855 192.025C157.028 191.926 157.171 191.783 157.271 191.61C157.371 191.438 157.423 191.242 157.423 191.043C157.423 190.844 157.371 190.648 157.271 190.476C157.172 190.303 157.029 190.16 156.856 190.06Z" fill="#CFCFCF"/>
<path d="M190.342 4.12739C190.342 34.2698 190.342 93.5831 190.349 136.158C190.351 136.525 190.255 136.886 190.072 137.204C189.888 137.522 189.624 137.786 189.305 137.969C145.533 163.265 63.6859 210.591 21.3486 235.063C20.8715 235.339 20.3299 235.485 19.7784 235.486C19.2269 235.486 18.685 235.342 18.2072 235.066C17.7295 234.79 17.3329 234.394 17.0574 233.916C16.7819 233.438 16.6373 232.896 16.6381 232.345C16.6381 197.859 16.6317 141.148 16.6254 102.713C16.6255 102.163 16.7706 101.622 17.0461 101.146C17.3217 100.67 17.7179 100.275 18.1949 100.001C56.8006 77.685 167.113 13.9159 187.188 2.31579C187.507 2.13254 187.869 2.03612 188.237 2.03613C188.605 2.03615 188.966 2.13261 189.285 2.31589C189.605 2.49917 189.87 2.76287 190.055 3.08071C190.241 3.39856 190.34 3.75944 190.342 4.12739Z" fill="white"/>
<path d="M23.8224 233.632L16.6381 237.785C16.6381 230.196 16.6381 221.229 16.6381 211.421C57.6406 187.721 145.186 137.105 190.344 111.006C190.344 120.22 190.344 129.119 190.344 137.365C147.672 162.031 67.1576 208.584 23.8224 233.632Z" fill="#CFCFCF"/>
<path d="M134.076 121.58L151.821 111.321C151.821 98.5989 151.814 79.684 151.811 48.6458L134.07 58.9059C134.07 60.1985 134.074 101.585 134.076 121.58Z" fill="#563589"/>
<path d="M98.0832 142.515L115.829 132.256C115.829 119.534 115.821 113.878 115.819 82.8398L98.0768 93.1C98.0768 94.3979 98.0811 122.528 98.0832 142.515Z" fill="#8572AA"/>
<path d="M62.3028 163.247L80.0472 152.988C80.0472 140.266 80.0409 152.854 80.0377 121.816L62.2964 132.075C62.2964 133.37 62.3007 143.257 62.3028 163.247Z" fill="#7F788D"/>
<path d="M188.237 4.1273C188.237 27.6363 188.237 51.1422 188.237 74.6449C188.237 88.2794 188.237 101.914 188.237 115.55C188.237 121.788 188.237 128.025 188.237 134.263C188.327 134.886 188.33 135.518 188.246 136.141C188.053 136.428 187.313 136.685 187.007 136.86L183.983 138.609L177.62 142.287C157.325 154.017 137.031 165.749 116.738 177.482L52.3374 214.717L25.4097 230.282L22.4392 232.002C21.7181 232.423 20.6371 233.371 19.8076 233.388C18.9602 233.399 18.776 232.717 18.7455 232.028C18.6833 230.61 18.7455 229.175 18.7455 227.756V210.387C18.7455 183.791 18.7426 157.194 18.737 130.597C18.737 124.243 18.737 117.89 18.737 111.536V107.054C18.6244 105.608 18.6244 104.156 18.737 102.71C18.9476 101.456 21.4034 100.577 22.4339 99.981C28.9863 96.1915 35.5383 92.4044 42.0899 88.6198C59.3084 78.6632 76.5289 68.708 93.7515 58.7542L146.978 27.9844L184.144 6.4989L186.696 5.0252L187.739 4.42099C187.918 4.33518 188.091 4.23559 188.255 4.12309C188.274 4.10835 188.239 4.09888 188.241 4.12309C188.452 6.80733 192.662 6.82943 192.452 4.12309C192.43 3.36625 192.209 2.62855 191.81 1.98521C191.411 1.34188 190.848 0.815927 190.179 0.46099C189.51 0.106052 188.759 -0.0651722 188.003 -0.035223C187.246 -0.00527392 186.511 0.224777 185.873 0.631471C185.081 1.06832 184.306 1.53674 183.523 1.98938L177.056 5.72837L158.424 16.499L106.847 46.3162L51.83 78.1239L28.8824 91.3872L19.6118 96.7473C17.6865 97.8599 15.5623 98.8041 14.7896 101.075C14.4619 102.557 14.3724 104.082 14.5244 105.593V110.405C14.5244 137.587 14.5272 164.768 14.5328 191.95C14.5328 204.331 14.5328 216.71 14.5328 229.089C14.5328 231.938 14.1991 235.089 17.016 236.805C19.8328 238.52 22.335 236.924 24.8055 235.495L37.632 228.081L100.467 191.757C122.284 179.143 144.102 166.53 165.92 153.918L179.752 145.918L186.371 142.092C188.467 140.88 191.778 139.709 192.347 137.082C192.545 135.511 192.58 133.924 192.453 132.346V127.275C192.453 124.053 192.453 120.83 192.453 117.606C192.453 110.739 192.453 103.872 192.453 97.0041C192.453 70.7435 192.453 44.4835 192.453 18.2243V4.1273C192.447 1.4178 188.237 1.41358 188.237 4.1273Z" fill="#211715"/>
<path d="M17.7033 213.239L46.3352 196.686C58.101 189.886 69.866 183.084 81.6303 176.282C94.3547 168.927 107.078 161.571 119.801 154.215L156.539 132.978L188.055 114.762L191.415 112.82C193.76 111.465 191.642 107.825 189.289 109.184L158.701 126.869L122.398 147.855L84.1683 169.961L48.3226 190.675L18.6444 207.833L15.5781 209.605C13.2328 210.961 15.3507 214.601 17.7033 213.241V213.239Z" fill="#211715"/>
<path d="M135.138 123.393L144.586 117.931L148.963 115.404L151.363 114.017C152.226 113.518 153.334 113.106 153.745 112.131C153.978 111.217 154.04 110.267 153.926 109.331V106.761C153.926 104.886 153.926 103.012 153.926 101.138C153.926 91.3456 153.926 81.5532 153.926 71.7609V48.6448C153.92 48.2767 153.819 47.9164 153.631 47.5992C153.444 47.2821 153.178 47.019 152.859 46.8357C152.539 46.6525 152.178 46.5553 151.81 46.5537C151.442 46.5522 151.079 46.6463 150.758 46.8269L138.626 53.8428C136.773 54.9144 134.788 55.8849 133.016 57.087C132.667 57.3303 132.386 57.6607 132.204 58.0454C132.021 58.4302 131.942 58.856 131.974 59.2807C131.906 62.0829 131.974 64.8945 131.974 67.7019C131.974 79.3048 131.974 90.9088 131.974 102.514C131.974 108.87 131.974 115.226 131.974 121.584C131.974 124.293 136.185 124.297 136.185 121.584L136.178 64.9513V58.9007L135.135 60.7176L152.876 50.4585L149.709 48.6406C149.709 66.4071 149.712 84.174 149.717 101.941C149.717 105.065 149.717 108.19 149.717 111.316L150.761 109.498L133.015 119.757C130.668 121.113 132.791 124.753 135.138 123.393Z" fill="#211715"/>
<path d="M99.1463 144.333L108.594 138.871L112.97 136.345L115.371 134.957C116.234 134.458 117.342 134.046 117.753 133.071C118.309 131.752 117.934 129.606 117.933 128.171C117.933 126.767 117.933 125.364 117.933 123.96C117.933 117.131 117.931 110.301 117.928 103.472C117.928 96.5943 117.928 89.717 117.928 82.8397C117.921 82.4716 117.82 82.1113 117.633 81.7942C117.445 81.4771 117.179 81.214 116.86 81.0308C116.54 80.8475 116.179 80.7504 115.811 80.7488C115.442 80.7472 115.08 80.8413 114.759 81.0218C108.992 84.3577 103.075 87.5177 97.4211 91.0483C96.0621 91.8977 95.9747 92.8125 95.9747 94.1893V97.4967V124.61C95.9747 130.578 95.9747 136.547 95.9747 142.515C95.9747 145.225 100.185 145.229 100.185 142.515C100.185 127.509 100.185 112.503 100.185 97.4967C100.185 96.0315 100.185 94.5658 100.185 93.0999L99.1432 94.9167L116.884 84.6577L113.714 82.8429C113.714 96.7378 113.716 110.633 113.721 124.528C113.721 127.104 113.721 129.68 113.721 132.255L114.764 130.437C108.849 133.856 102.933 137.276 97.0189 140.696C94.6758 142.053 96.7905 145.693 99.1463 144.333Z" fill="#211715"/>
<path d="M63.3649 165.065L72.8124 159.603L77.1893 157.077L79.5893 155.688C80.4525 155.189 81.5609 154.776 81.9714 153.802C82.4609 152.644 82.1525 150.82 82.1525 149.548C82.1525 148.795 82.1525 148.042 82.1525 147.289C82.1525 144.535 82.1507 141.782 82.1472 139.029C82.1472 133.292 82.1472 127.555 82.1472 121.819C82.142 121.45 82.0408 121.089 81.8536 120.771C81.6664 120.453 81.3996 120.19 81.0795 120.006C80.7595 119.823 80.3972 119.726 80.0282 119.725C79.6593 119.724 79.2965 119.819 78.9756 120.001L65.3565 127.876L62.2459 129.675C61.1933 130.284 60.2691 130.794 60.1912 132.134C60.1691 132.499 60.1912 132.871 60.1912 133.237C60.1912 138.042 60.1912 142.847 60.1912 147.652C60.1912 152.852 60.1912 158.052 60.1912 163.25C60.1912 165.96 64.4018 165.965 64.4018 163.25C64.4018 152.86 64.3997 142.469 64.3954 132.078L63.3586 133.896L81.1062 123.634L77.9377 121.816C77.9377 130.387 77.9405 138.957 77.9461 147.527C77.9461 149.348 77.9461 151.168 77.9461 152.988L78.9893 151.17C73.0748 154.59 67.1597 158.01 61.2438 161.429C58.8954 162.786 61.0123 166.423 63.3649 165.065Z" fill="#211715"/>
<path d="M82.6725 198.677V207.554C82.6725 209.159 82.5746 210.745 84.0493 211.82C85.5414 212.809 87.0831 213.72 88.6683 214.551L93.1105 217.132C95.5603 218.555 98.0102 219.978 100.46 221.4C102.424 222.54 104.654 224.459 106.986 223.284C109.544 221.999 111.98 220.35 114.46 218.913C123.191 213.845 131.936 208.797 140.693 203.77C145.121 201.22 149.548 198.669 153.975 196.118C155.863 195.029 159.322 193.832 159.492 191.328C159.679 188.597 156.693 187.527 154.722 186.371C151.738 184.621 148.756 182.867 145.774 181.108L143.223 179.606L141.904 178.829L141.235 178.435C140.919 178.164 140.853 178.309 141.038 178.87C140.912 178.747 141.038 177.805 141.038 177.655V167.835C141.038 165.126 136.828 165.122 136.828 167.835C136.828 171.488 136.635 175.191 136.828 178.838C136.951 181.161 138.889 181.941 140.66 182.984L146.842 186.623C148.562 187.634 150.281 188.646 152 189.657L154.21 190.955C154.521 191.136 154.829 191.353 155.157 191.506C156.169 191.988 154.922 191.247 155.28 190.769L156.035 190.015C153.942 191.429 151.757 192.705 149.496 193.834C147.006 195.269 144.515 196.704 142.023 198.138C136.843 201.121 131.664 204.104 126.485 207.085C121.918 209.719 117.357 212.357 112.8 214.998C111.097 215.987 109.396 216.977 107.696 217.97C107.095 218.321 106.494 218.674 105.894 219.029C105.683 219.134 105.479 219.255 105.285 219.39C105.174 219.446 105.066 219.51 104.963 219.581C105.72 219.684 105.907 219.645 105.523 219.462L105.168 219.257C102.592 217.765 100.018 216.271 97.4463 214.775L92.0463 211.638C90.0162 210.611 88.054 209.455 86.1715 208.178L86.9262 208.933C86.9957 209.023 86.902 209.327 86.8799 208.795C86.8662 208.444 86.8799 208.091 86.8799 207.742V198.672C86.8799 195.962 82.6693 195.958 82.6693 198.672L82.6725 198.677Z" fill="#211715"/>
<path d="M34.1162 129.846C47.5261 117.411 60.9059 104.943 74.2556 92.4432C76.2324 90.5811 73.2503 87.6084 71.2776 89.4663C57.9659 102.005 44.5861 114.473 31.1382 126.869C29.1477 128.715 32.1298 131.688 34.1162 129.846Z" fill="#211715"/>
<path d="M106.281 213.897C116.838 207.718 127.475 201.675 138.057 195.541C140.171 194.316 142.287 193.095 144.386 191.845C146.712 190.461 144.596 186.82 142.26 188.211C131.814 194.426 121.217 200.396 110.69 206.475C108.51 207.738 106.329 208.99 104.156 210.264C101.819 211.633 103.936 215.274 106.281 213.9V213.897Z" fill="#211715"/>
<path d="M271.908 270.614L270.856 270.046C267.525 271.65 257.028 271.847 255.04 270.409C251.244 274.774 245.776 275.406 240.852 274.745C240.179 274.693 239.515 274.561 238.874 274.349C237.114 273.753 235.492 272.807 234.106 271.569C234.092 271.555 234.073 271.548 234.06 271.533L233.455 271.589C232.644 271.102 230.169 271.604 229.154 273.13C228.139 274.656 228.176 277.597 228.749 279.341C229.997 283.13 233.651 285.059 237.409 286.413C241.284 287.878 245.487 288.253 249.561 287.496C250.418 287.282 251.221 286.892 251.919 286.35C252.617 285.808 253.193 285.126 253.612 284.348C254.103 283.427 254.417 282.421 254.538 281.384L261.002 282.87C262.32 283.21 263.675 283.384 265.036 283.388C265.68 283.384 266.324 283.346 266.965 283.277C267.911 283.225 268.833 282.964 269.666 282.513C270.499 282.062 271.221 281.431 271.781 280.667C272.42 279.445 272.746 278.083 272.728 276.704C272.764 275.318 271.864 271.995 271.908 270.614Z" fill="white"/>
<path d="M253.912 127.308C253.736 128.147 253.406 128.947 252.939 129.667C251.962 131.103 250.636 132.267 249.084 133.047C250.452 135.521 252.318 137.685 254.563 139.403C256.809 141.122 259.385 142.357 262.131 143.031C261.143 143.929 260.328 145.001 259.729 146.195C257.379 146.042 255.019 146.224 252.72 146.736C246.922 147.864 238.93 150.495 236.839 151.853C235.516 152.749 234.342 153.847 233.359 155.108L234.698 150.792C235.214 149.212 235.225 147.51 234.73 145.923C234.08 144.367 232.916 143.082 231.433 142.281L231.987 139.294C231.975 139.285 231.965 139.273 231.954 139.262C229.307 136.489 227.535 132.996 226.861 129.221C226.221 125.88 226.276 122.442 227.022 119.123C227.768 115.804 229.19 112.673 231.198 109.927C232.119 108.683 233.158 107.53 234.302 106.486C237.695 112.415 242.476 117.433 248.234 121.108C249.245 120.86 250.309 120.954 251.261 121.374C252.213 121.794 252.999 122.516 253.498 123.43C254.071 124.638 254.218 126.005 253.912 127.308Z" fill="white"/>
<path d="M229.226 141.411C228.058 141.121 226.84 141.103 225.665 141.359C223.971 141.731 222.473 142.71 221.45 144.109C220.427 145.509 219.95 147.234 220.11 148.961L220.253 151.058C220.567 151.073 220.876 151.144 221.166 151.268C223.357 152.303 229.554 155.751 231.176 156.806L231.808 157.201C232.988 155.359 234.455 153.719 236.153 152.341L234.696 150.792C235.212 149.212 235.223 147.51 234.728 145.923C234.231 144.79 233.474 143.791 232.518 143.007C231.562 142.223 230.434 141.676 229.226 141.411Z" fill="white"/>
<path d="M245.508 100.738C241.324 101.619 237.451 103.604 234.294 106.488C237.694 112.412 242.477 117.426 248.234 121.102C249.245 120.855 250.309 120.949 251.261 121.368C252.213 121.788 252.999 122.511 253.498 123.425C253.942 124.426 254.124 125.525 254.026 126.616C253.929 127.708 253.556 128.757 252.942 129.665C251.966 131.101 250.639 132.265 249.087 133.045C250.455 135.518 252.32 137.682 254.565 139.401C256.81 141.119 259.386 142.354 262.131 143.029C262.231 142.924 262.334 142.818 262.442 142.696C265.366 139.479 267.472 137.238 269.262 134.078C271.806 129.654 272.824 124.514 272.157 119.454C270.7 109.319 262.082 100.838 251.854 100.259C249.727 100.137 247.593 100.298 245.508 100.738Z" fill="#7A7473"/>
<path d="M237.259 119.896C237.191 120.386 237.014 120.855 236.742 121.268C236.471 121.682 236.11 122.03 235.688 122.288C235.092 122.601 234.397 122.672 233.75 122.486C233.308 122.367 232.899 122.146 232.559 121.84C232.218 121.534 231.954 121.152 231.788 120.726C231.552 120.044 231.539 119.305 231.75 118.616C231.961 117.926 232.385 117.321 232.962 116.888C233.521 116.498 234.207 116.334 234.882 116.429C235.557 116.524 236.171 116.872 236.6 117.401C236.889 117.742 237.097 118.143 237.211 118.574C237.325 119.006 237.342 119.457 237.259 119.896Z" fill="#211715"/>
<path d="M262.582 210.622C263.771 210.437 264.991 210.242 266.242 210.037C267.937 209.76 270.796 209.01 271.716 207.906C272.885 206.502 272.825 205.018 272.888 202.928C273.372 186.853 274.307 174.868 271.499 161.154C270.62 156.861 269.393 152.398 266.322 149.275C263.25 146.152 259.341 145.448 252.719 146.736C246.921 147.863 238.929 150.495 236.838 151.853C234.826 153.293 233.115 155.112 231.8 157.209L231.175 156.803C229.553 155.75 223.356 152.299 221.165 151.265C220.696 151.076 220.188 151.006 219.686 151.061C219.04 151.155 218.719 151.88 218.528 152.504C216.998 157.899 215.851 163.395 215.096 168.952C214.123 174.576 214.018 180.317 214.787 185.972C214.965 187.051 215.357 188.084 215.938 189.01C216.519 189.936 217.279 190.737 218.173 191.367C219.739 192.676 222.08 192.538 224.068 192.085C226.126 191.603 228.08 190.754 229.836 189.579L229.765 196.52C229.757 199.79 229.9 203.54 229.9 203.54C229.829 205.304 230.755 208.277 232.2 209.27C233.487 210.158 235.203 210.557 239.063 211.259C246.953 212.693 254.032 211.955 262.582 210.622Z" fill="white"/>
<path d="M248.125 212.039C245.087 212.06 242.055 211.799 239.066 211.259C234.721 210.47 233.094 210.062 231.736 208.913C231.657 218.396 232.408 255.632 233.143 269.167L233.368 270.29C233.692 271.913 236.21 273.293 238.868 274.348C239.509 274.56 240.173 274.693 240.846 274.744C245.766 275.405 251.237 274.774 255.033 270.408C257.466 272.167 272.631 271.481 271.837 268.766C271.347 255.317 270.916 228.143 271.31 216.081C271.31 216.081 271.205 211.943 271.112 208.429C269.6 209.252 267.952 209.797 266.246 210.037C260.267 211.177 254.208 211.846 248.125 212.039Z" fill="#CFCFCF"/>
<path d="M229.634 211.519C229.681 227.187 230.074 242.864 230.601 258.522C230.721 262.116 230.852 265.709 231.047 269.3C231.194 271.995 235.406 272.011 235.257 269.3C234.407 253.66 234.193 237.966 233.957 222.308C233.903 218.712 233.852 215.116 233.845 211.519C233.836 208.811 229.626 208.805 229.634 211.519Z" fill="#211715"/>
<path d="M269.202 216.082C268.736 230.745 269.102 245.466 269.472 260.128C269.561 263.624 269.661 267.12 269.803 270.615C269.908 273.315 274.119 273.328 274.013 270.615C273.418 255.948 273.221 241.246 273.263 226.569C273.273 223.073 273.302 219.576 273.412 216.082C273.499 213.371 269.288 213.374 269.202 216.082Z" fill="#211715"/>
<path d="M252.687 231.019C252.091 242.598 251.775 254.22 251.655 265.815C251.634 267.815 251.564 269.836 251.713 271.832C251.914 274.517 256.127 274.539 255.924 271.832C255.587 267.34 255.896 262.741 255.999 258.246C256.147 251.69 256.342 245.134 256.584 238.581C256.675 236.054 256.768 233.539 256.9 231.019C257.039 228.311 252.828 228.318 252.689 231.019H252.687Z" fill="#211715"/>
<path d="M231.337 270.845C231.864 272.902 233.779 274.233 235.565 275.161C236.633 275.764 237.77 276.238 238.951 276.571C240.085 276.807 241.235 276.953 242.392 277.01C246.895 277.463 251.4 276.171 254.979 273.401C255.37 273.004 255.59 272.469 255.59 271.912C255.59 271.355 255.37 270.82 254.979 270.424C254.577 270.041 254.044 269.827 253.49 269.827C252.935 269.827 252.402 270.041 252.001 270.424C249.397 272.29 246.205 273.147 243.017 272.838C241.394 272.827 239.79 272.484 238.305 271.828C237.509 271.487 236.756 271.055 236.059 270.542C235.853 270.365 235.659 270.174 235.478 269.971C235.567 270.076 235.543 270.027 235.406 269.824C235.47 269.997 235.468 269.966 235.397 269.73C234.723 267.108 230.66 268.22 231.337 270.849V270.845Z" fill="#211715"/>
<path d="M255.283 272.807C257.971 273.478 260.752 273.691 263.511 273.439C266.388 273.461 269.242 272.928 271.917 271.867C272.395 271.582 272.743 271.121 272.884 270.582C273.025 270.043 272.949 269.47 272.671 268.987C272.381 268.515 271.92 268.172 271.383 268.031C270.847 267.891 270.276 267.962 269.791 268.231C269.412 268.408 270.284 268.066 269.86 268.205C269.754 268.239 269.658 268.28 269.556 268.31C269.31 268.394 269.06 268.466 268.809 268.532C268.227 268.685 267.634 268.8 267.041 268.897L266.599 268.964C266.346 269.003 266.934 268.927 266.519 268.976C266.171 269.016 265.825 269.056 265.477 269.088C264.757 269.158 264.035 269.207 263.313 269.233C261.94 269.294 260.565 269.281 259.193 269.195C258.907 269.175 258.621 269.151 258.334 269.123C258.172 269.107 258.01 269.084 257.848 269.069C258.418 269.121 257.905 269.077 257.799 269.06C257.326 268.988 256.86 268.882 256.403 268.744C256.136 268.671 255.858 268.65 255.583 268.684C255.309 268.718 255.043 268.806 254.803 268.943C254.562 269.079 254.351 269.262 254.181 269.48C254.011 269.698 253.886 269.948 253.812 270.215C253.739 270.481 253.718 270.76 253.752 271.034C253.787 271.309 253.874 271.574 254.011 271.814C254.148 272.055 254.33 272.266 254.548 272.436C254.767 272.606 255.016 272.732 255.283 272.805V272.807Z" fill="#211715"/>
<path d="M234.511 269.77C233.677 269.423 232.772 269.28 231.871 269.355C230.971 269.43 230.101 269.72 229.336 270.201C228.461 270.737 227.729 271.477 227.205 272.359C226.68 273.241 226.377 274.237 226.324 275.262C226.092 277.316 226.441 279.394 227.332 281.259C228.222 283.124 229.619 284.702 231.361 285.814C235.283 288.349 239.813 289.785 244.48 289.969C248.924 290.194 253.724 289.253 255.727 284.789C257.447 280.956 256.754 276.435 255.845 272.489C255.235 269.849 251.175 270.967 251.784 273.608C252.295 275.613 252.553 277.674 252.552 279.743C252.553 280.362 252.491 280.98 252.368 281.587C252.304 281.874 252.235 282.158 252.147 282.438C252.12 282.524 251.815 283.265 252.019 282.829C250.212 286.724 244.683 286.076 241.196 285.313C237.776 284.564 233.231 283.122 231.313 279.921C230.475 278.477 230.215 276.769 230.587 275.141C230.62 274.843 230.73 274.558 230.907 274.316C231.084 274.074 231.322 273.882 231.596 273.761C231.878 273.629 232.215 273.626 232.491 273.501C232.624 273.44 232.776 273.592 232.386 273.406C234.817 274.572 236.956 270.943 234.511 269.77Z" fill="#211715"/>
<path d="M269.803 270.615C269.887 272.2 270.114 273.775 270.48 275.32C270.533 275.53 270.568 275.743 270.585 275.959C270.585 275.405 270.568 275.835 270.585 275.981C270.616 276.28 270.626 276.581 270.613 276.882C270.603 277.138 270.579 277.39 270.56 277.645C270.523 278.139 270.621 277.427 270.528 277.877C270.473 278.141 270.423 278.403 270.355 278.665C270.332 278.743 270.135 279.336 270.203 279.164C270.271 278.993 269.998 279.531 269.963 279.601C269.823 279.8 269.823 279.81 269.963 279.629C269.905 279.701 269.844 279.771 269.78 279.84C269.632 279.999 269.474 280.148 269.308 280.287C269.639 280.009 269.128 280.393 269.047 280.444C268.858 280.559 268.662 280.655 268.463 280.76C268.241 280.865 268.232 280.865 268.439 280.77C268.349 280.804 268.259 280.837 268.168 280.866C267.743 280.999 267.309 281.105 266.87 281.182C266.714 281.207 266.745 281.202 266.962 281.169C266.804 281.185 266.646 281.201 266.487 281.214C266.225 281.236 265.961 281.254 265.7 281.265C265.21 281.286 264.721 281.287 264.232 281.265C263.996 281.254 263.761 281.229 263.525 281.213C263.272 281.182 263.255 281.182 263.477 281.213L263.17 281.166C262.628 281.079 262.092 280.964 261.558 280.84C261.291 280.766 261.013 280.746 260.738 280.78C260.464 280.814 260.199 280.902 259.958 281.039C259.718 281.175 259.507 281.358 259.337 281.576C259.167 281.794 259.042 282.044 258.968 282.31C258.895 282.577 258.874 282.855 258.909 283.13C258.943 283.404 259.031 283.669 259.167 283.91C259.304 284.15 259.486 284.361 259.704 284.531C259.923 284.701 260.172 284.826 260.439 284.9C264.798 285.92 271.023 286.067 273.644 281.647C274.65 279.785 275.035 277.65 274.741 275.554C274.609 274.529 274.425 273.517 274.239 272.501C274.2 272.279 274.161 272.057 274.124 271.833C274.106 271.728 274.09 271.622 274.074 271.518C274.039 271.276 274.042 271.307 274.085 271.623C274.004 271.296 273.981 270.957 274.017 270.622C274.017 270.064 273.795 269.528 273.4 269.133C273.005 268.738 272.47 268.517 271.911 268.517C271.353 268.517 270.818 268.738 270.423 269.133C270.028 269.528 269.806 270.064 269.806 270.622L269.803 270.615Z" fill="#211715"/>
<path d="M239.125 176.675C236.274 180.601 233.249 184.731 229.192 187.497C227.272 188.868 225.072 189.794 222.75 190.208C221.685 190.403 220.586 190.237 219.627 189.736C218.667 189.235 217.903 188.428 217.455 187.442C216.98 186.439 216.711 185.351 216.664 184.242C216.489 182.663 216.398 181.071 216.379 179.48C216.346 176.309 216.57 173.141 217.049 170.006C217.495 167.07 217.979 164.136 218.553 161.223C218.838 159.767 219.151 158.317 219.506 156.877C219.703 156.077 219.913 155.28 220.137 154.488C220.227 154.172 220.32 153.857 220.414 153.541C220.478 153.365 220.531 153.186 220.573 153.004C220.649 152.764 220.473 152.813 220.047 153.151C220.047 153.13 221.889 153.988 222.038 154.067C223.091 154.621 224.136 155.19 225.177 155.766C226.839 156.686 228.518 157.599 230.118 158.625C232.406 160.099 234.519 156.45 232.244 154.989C230.501 153.871 228.665 152.884 226.857 151.885C225.019 150.873 222.837 149.291 220.725 149.008C216.619 148.459 216.046 153.266 215.333 156.24C214.491 159.769 213.882 163.35 213.304 166.931C212.664 170.579 212.287 174.268 212.176 177.97C212.15 179.648 212.197 181.328 212.337 183.001C212.383 184.793 212.683 186.569 213.228 188.277C214.28 190.974 216.727 193.708 219.649 194.323C222.612 194.948 225.785 194.008 228.464 192.77C234.627 189.928 238.892 184.143 242.767 178.804C243.044 178.321 243.12 177.748 242.979 177.209C242.837 176.671 242.49 176.209 242.011 175.924C241.526 175.654 240.956 175.582 240.419 175.723C239.883 175.864 239.421 176.206 239.131 176.679L239.125 176.675Z" fill="#211715"/>
<path d="M236.729 151.349C237.496 149.221 237.426 146.881 236.531 144.803C235.637 142.726 233.986 141.066 231.913 140.16C228.034 138.35 223.137 138.829 220.259 142.236C218.674 144.106 217.867 146.513 218.005 148.96C218.017 149.515 218.242 150.044 218.635 150.436C219.027 150.828 219.555 151.054 220.11 151.066C220.667 151.061 221.199 150.837 221.593 150.443C221.986 150.05 222.21 149.517 222.215 148.96C222.199 148.689 222.191 148.417 222.2 148.145C222.2 148.056 222.299 147.265 222.222 147.716C222.306 147.272 222.42 146.835 222.564 146.407C222.652 146.177 222.652 146.168 222.564 146.38C222.616 146.266 222.669 146.152 222.73 146.039C222.816 145.872 222.911 145.708 223.011 145.549C223.057 145.474 223.515 144.886 223.233 145.214C223.397 145.022 223.565 144.837 223.746 144.662C223.882 144.531 224.023 144.406 224.167 144.286C223.836 144.556 224.45 144.106 224.519 144.062C224.741 143.928 224.97 143.808 225.204 143.695C224.838 143.872 225.398 143.622 225.436 143.61C225.693 143.522 225.954 143.447 226.218 143.388C226.346 143.359 226.473 143.334 226.601 143.312C226.364 143.339 226.372 143.339 226.624 143.312C227.079 143.284 227.536 143.284 227.992 143.312C228.245 143.338 228.253 143.338 228.019 143.312C228.149 143.333 228.278 143.356 228.407 143.384C228.6 143.424 228.793 143.472 228.984 143.526C229.237 143.597 229.487 143.682 229.734 143.775C229.351 143.632 230.059 143.933 230.131 143.971C230.306 144.061 230.477 144.159 230.646 144.262C230.709 144.301 231.345 144.741 231.024 144.496C231.375 144.785 231.705 145.099 232.012 145.434C232.168 145.624 232.179 145.632 232.05 145.46C232.127 145.566 232.2 145.671 232.272 145.776C232.415 145.994 232.531 146.223 232.662 146.447C232.872 146.814 232.627 146.199 232.767 146.677C232.858 146.957 232.928 147.244 232.977 147.534C232.939 147.24 232.986 147.929 232.987 148.009C232.987 148.284 232.973 148.554 232.959 148.828C232.93 149.094 232.928 149.137 232.954 148.957C232.931 149.107 232.905 149.254 232.875 149.401C232.818 149.68 232.747 149.954 232.665 150.227C232.516 150.765 232.588 151.341 232.863 151.826C233.139 152.312 233.596 152.668 234.135 152.817C234.673 152.965 235.248 152.894 235.734 152.618C236.22 152.343 236.576 151.885 236.725 151.347L236.729 151.349Z" fill="#211715"/>
<path d="M227.662 196.52C227.662 198.854 227.737 201.184 227.797 203.517C227.745 206.083 228.67 208.574 230.384 210.484C231.877 211.931 234.119 212.422 236.084 212.826C239.166 213.49 242.295 213.913 245.443 214.09C251.928 214.394 258.395 213.418 264.781 212.396C267.341 211.986 270.239 211.641 272.405 210.08C274.915 208.273 274.924 205.212 275.009 202.418C275.391 189.907 276.214 177.353 274.304 164.921C273.408 159.084 272.249 152.589 268.103 148.094C264.492 144.18 259.437 143.633 254.419 144.332C248.417 145.167 242.567 146.863 237.05 149.37C234.36 150.805 232.087 152.912 230.454 155.487C228.288 158.537 226.411 161.782 224.848 165.181C224.581 165.666 224.511 166.236 224.651 166.771C224.792 167.307 225.132 167.769 225.602 168.062C226.086 168.339 226.659 168.415 227.198 168.274C227.737 168.132 228.199 167.785 228.484 167.306C229.734 164.606 231.176 161.999 232.799 159.505C234.211 157.344 235.792 154.951 238.048 153.586C239.577 152.755 241.19 152.091 242.861 151.604C245.287 150.777 247.753 150.055 250.243 149.444C254.232 148.463 259.364 147.145 263.158 149.415C267.368 151.936 268.622 157.484 269.522 161.933C271.696 172.691 271.449 183.664 271.073 194.575C270.968 197.646 270.865 200.718 270.767 203.79C270.74 204.651 270.798 205.87 270.136 206.542C269.403 207.079 268.553 207.435 267.656 207.578C264.906 208.223 262.12 208.698 259.312 209.001C256.512 209.403 253.695 209.721 250.869 209.86C247.822 210.031 244.766 209.931 241.736 209.562C239.134 209.36 236.569 208.814 234.11 207.938C233.46 207.645 232.944 207.119 232.664 206.464C232.243 205.547 232.022 204.551 232.013 203.542C231.952 201.201 231.876 198.863 231.877 196.522C231.877 193.813 227.667 193.807 227.667 196.522L227.662 196.52Z" fill="#211715"/>
<path d="M261.801 146.802C262.959 145.136 264.279 143.59 265.743 142.186C267.367 140.44 268.854 138.571 270.191 136.597C272.915 132.456 274.402 127.623 274.477 122.667C274.445 118.44 273.345 114.29 271.278 110.603C269.211 106.916 266.245 103.812 262.655 101.58C255.314 97.0127 245.964 97.1591 238.378 101.083C234.3 103.262 230.861 106.466 228.398 110.379C225.936 114.293 224.536 118.78 224.336 123.399C223.834 133.837 230.508 145.926 242.218 145.572C244.922 145.49 244.933 141.278 242.218 141.362C233.547 141.625 228.697 132.818 228.525 125.13C228.422 121.213 229.348 117.338 231.209 113.891C233.071 110.443 235.803 107.544 239.134 105.481C245.216 101.814 253.112 101.128 259.441 104.577C262.457 106.221 265.019 108.586 266.899 111.461C268.779 114.336 269.918 117.632 270.215 121.054C270.486 125.875 269.16 130.651 266.441 134.642C265.136 136.502 263.693 138.261 262.125 139.905C260.643 141.352 259.314 142.949 258.16 144.669C256.782 147.009 260.42 149.13 261.795 146.794L261.801 146.802Z" fill="#211715"/>
<path d="M233.258 108.861C236.713 114.378 241.318 119.084 246.76 122.656C247.243 122.934 247.816 123.01 248.355 122.869C248.894 122.727 249.355 122.38 249.64 121.9C249.909 121.416 249.981 120.845 249.84 120.309C249.7 119.772 249.357 119.311 248.885 119.02C248.253 118.605 247.631 118.174 247.02 117.727C246.874 117.621 246.73 117.516 246.586 117.403L246.413 117.273C246.525 117.36 246.525 117.36 246.413 117.273C246.101 117.029 245.792 116.78 245.487 116.527C244.349 115.583 243.262 114.581 242.229 113.524C241.195 112.467 240.229 111.353 239.302 110.199L239.168 110.03C239.253 110.142 239.254 110.142 239.168 110.03C239.063 109.887 238.951 109.742 238.844 109.598C238.628 109.308 238.418 109.016 238.212 108.722C237.755 108.074 237.318 107.413 236.899 106.739C236.618 106.257 236.156 105.907 235.616 105.765C235.075 105.623 234.501 105.702 234.019 105.984C233.537 106.266 233.186 106.727 233.045 107.268C232.903 107.808 232.982 108.382 233.264 108.864L233.258 108.861Z" fill="#211715"/>
<path d="M248.741 123.14C248.846 123.114 249.358 123.055 248.841 123.093C249.009 123.08 249.174 123.066 249.343 123.066C249.511 123.066 249.678 123.079 249.846 123.096C249.562 123.066 249.626 123.065 249.867 123.123C250.03 123.162 250.189 123.229 250.352 123.265C250.583 123.318 250.053 123.092 250.393 123.28C250.542 123.362 250.692 123.437 250.835 123.526C250.941 123.595 251.256 123.907 250.953 123.596C251.07 123.714 251.2 123.832 251.321 123.945C251.625 124.234 251.177 123.657 251.414 124.051C251.489 124.173 251.567 124.291 251.635 124.417C251.68 124.497 251.721 124.578 251.759 124.661C251.682 124.474 251.669 124.451 251.721 124.593C251.756 124.744 251.819 124.892 251.857 125.043C251.896 125.195 251.963 125.609 251.917 125.23C251.954 125.613 251.961 125.998 251.939 126.382C251.923 126.835 252.024 126.113 251.913 126.593C251.877 126.752 251.847 126.909 251.808 127.07C251.759 127.259 251.703 127.445 251.636 127.631C251.588 127.769 251.463 128.031 251.592 127.76C251.423 128.108 251.23 128.444 251.014 128.765C250.682 129.274 251.267 128.495 250.871 128.962C250.744 129.114 250.613 129.263 250.477 129.408C250.226 129.674 249.961 129.927 249.682 130.164C249.59 130.243 249.327 130.451 249.56 130.275C249.401 130.396 249.235 130.51 249.068 130.62C248.736 130.84 248.393 131.041 248.038 131.222C247.864 131.311 247.687 131.397 247.512 131.473C247.849 131.331 247.395 131.506 247.302 131.539C247.035 131.613 246.786 131.738 246.567 131.908C246.349 132.078 246.167 132.289 246.03 132.529C245.893 132.77 245.806 133.035 245.772 133.309C245.737 133.584 245.758 133.862 245.831 134.129C245.905 134.395 246.03 134.645 246.2 134.863C246.37 135.081 246.581 135.264 246.821 135.4C247.062 135.537 247.327 135.625 247.601 135.659C247.876 135.693 248.154 135.673 248.421 135.599C252.531 134.15 256.122 130.567 256.175 125.994C256.208 124.873 255.971 123.761 255.486 122.75C255 121.74 254.28 120.86 253.385 120.184C252.566 119.589 251.626 119.182 250.632 118.991C249.637 118.8 248.613 118.831 247.632 119.081C247.366 119.155 247.116 119.28 246.898 119.45C246.68 119.62 246.497 119.831 246.361 120.071C246.224 120.312 246.136 120.577 246.102 120.851C246.068 121.126 246.088 121.404 246.162 121.671C246.235 121.937 246.36 122.187 246.53 122.405C246.7 122.623 246.911 122.806 247.152 122.942C247.392 123.079 247.657 123.167 247.932 123.201C248.206 123.235 248.485 123.215 248.751 123.141L248.741 123.14Z" fill="#211715"/>
<path d="M247.927 135.225C250.837 139.726 255.223 143.076 260.332 144.698C260.871 144.842 261.445 144.769 261.93 144.493C262.415 144.217 262.771 143.761 262.923 143.225C263.058 142.686 262.98 142.117 262.706 141.634C262.431 141.152 261.981 140.794 261.449 140.635C260.905 140.456 260.373 140.25 259.838 140.046C260.31 140.226 259.78 140.019 259.714 139.99L259.406 139.85C259.149 139.731 258.895 139.607 258.645 139.478C257.629 138.939 256.652 138.331 255.72 137.658C255.463 137.478 256.102 137.968 255.68 137.629C255.574 137.541 255.461 137.453 255.353 137.365C255.136 137.185 254.924 137.001 254.715 136.813C254.294 136.434 253.892 136.038 253.507 135.623C253.312 135.413 253.122 135.2 252.937 134.986C252.844 134.88 252.752 134.767 252.662 134.655C252.627 134.614 252.328 134.234 252.504 134.462C252.68 134.691 252.385 134.303 252.353 134.26C252.267 134.142 252.182 134.024 252.099 133.906C251.912 133.64 251.734 133.371 251.56 133.099C251.42 132.86 251.235 132.652 251.015 132.484C250.794 132.317 250.543 132.195 250.276 132.125C250.008 132.055 249.73 132.038 249.456 132.076C249.182 132.113 248.918 132.204 248.679 132.344C248.44 132.483 248.231 132.669 248.064 132.889C247.897 133.109 247.775 133.36 247.705 133.628C247.635 133.895 247.618 134.174 247.655 134.448C247.693 134.722 247.784 134.986 247.924 135.225H247.927Z" fill="#211715"/>
</g>
<defs>
<clipPath id="clip0_89_253">
<rect width="290" height="290" fill="white"/>
</clipPath>
</defs>
</svg>
