<svg width="89" height="83" viewBox="0 0 89 83" fill="none" xmlns="http://www.w3.org/2000/svg">
<path d="M10.3907 7.25987H10.3284V22.0426H78.5282V18.4358C78.5309 18.3765 78.5469 18.3205 78.5469 18.2603V7.84295C78.5469 7.78277 78.5309 7.72675 78.5282 7.6674V7.26029H78.4846C78.1807 5.26995 76.3776 3.73486 74.1761 3.73486H14.6992C12.4978 3.73486 10.6942 5.26995 10.3907 7.25987Z" fill="#392E4F"/>
<path d="M14.9662 9.14453H74.1779V26.0487H14.9662V9.14453Z" fill="white"/>
<path d="M10.1847 20.4141H78.6608V79.2652H10.1847V20.4141Z" fill="#D9D9D9" fill-opacity="0.78"/>
<path d="M10.1847 20.4141H45.6312V79.2652H10.1847V20.4141Z" fill="#B3A5D0" fill-opacity="0.63"/>
<path d="M10.3912 76.129H10.3284V79.2652H78.7966L78.8157 76.7117C78.8157 76.6515 78.7997 76.5955 78.7966 76.5361V76.129H78.7525C78.4477 74.1387 76.6374 72.604 74.4276 72.604H14.7161C12.5063 72.6036 10.696 74.1387 10.3912 76.129Z" fill="#C4BCB1"/>
<path d="M44.0501 51.0221C44.0501 51.1402 43.9998 51.2534 43.9103 51.3369C43.8207 51.4205 43.6993 51.4674 43.5726 51.4674C43.446 51.4674 43.3246 51.4205 43.235 51.3369C43.1455 51.2534 43.0952 51.1402 43.0952 51.0221V33.8813C43.0952 33.7632 43.1455 33.65 43.235 33.5665C43.3246 33.483 43.446 33.436 43.5726 33.436C43.6993 33.436 43.8207 33.483 43.9103 33.5665C43.9998 33.65 44.0501 33.7632 44.0501 33.8813V51.0221Z" fill="#F38181"/>
<path d="M41.6636 35.9406C41.6636 36.97 42.1021 37.9573 42.8826 38.6852C43.6632 39.4131 44.7218 39.8221 45.8257 39.8221C46.9295 39.8221 47.9882 39.4131 48.7687 38.6852C49.5492 37.9573 49.9877 36.97 49.9877 35.9406C49.9877 34.9111 49.5492 33.9239 48.7687 33.1959C47.9882 32.468 46.9295 32.0591 45.8257 32.0591C44.7218 32.0591 43.6632 32.468 42.8826 33.1959C42.1021 33.9239 41.6636 34.9111 41.6636 35.9406Z" fill="#5B5144"/>
<path d="M43.6772 35.9406C43.6772 36.472 43.9035 36.9817 44.3065 37.3574C44.7094 37.7332 45.2558 37.9443 45.8256 37.9443C46.3955 37.9443 46.9419 37.7332 47.3448 37.3574C47.7477 36.9817 47.9741 36.472 47.9741 35.9406C47.9741 35.4092 47.7477 34.8996 47.3448 34.5239C46.9419 34.1481 46.3955 33.937 45.8256 33.937C45.2558 33.937 44.7094 34.1481 44.3065 34.5239C43.9035 34.8996 43.6772 35.4092 43.6772 35.9406Z" fill="#FCE38A"/>
<path d="M54.4858 15.0923C54.4858 15.3746 54.3656 15.6454 54.1515 15.845C53.9374 16.0446 53.6471 16.1568 53.3444 16.1568H21.1206C20.8179 16.1568 20.5276 16.0446 20.3135 15.845C20.0994 15.6454 19.9792 15.3746 19.9792 15.0923C19.9792 14.81 20.0994 14.5392 20.3135 14.3396C20.5276 14.14 20.8179 14.0278 21.1206 14.0278H53.3448C53.4947 14.0278 53.6431 14.0554 53.7816 14.1089C53.92 14.1624 54.0458 14.2408 54.1518 14.3396C54.2578 14.4385 54.3418 14.5558 54.3991 14.685C54.4564 14.8141 54.4859 14.9525 54.4858 15.0923Z" fill="#C4BCB1"/>
</svg>
