<svg width="104" height="96" viewBox="0 0 104 96" fill="none" xmlns="http://www.w3.org/2000/svg">
<path d="M78 64H82.3334C83.4826 64 84.5848 63.5786 85.3975 62.8284C86.2102 62.0783 86.6667 61.0609 86.6667 60V12H17.3334V60" stroke="black" stroke-width="8" stroke-linecap="round" stroke-linejoin="round"/>
<path d="M38.2633 72.48L26 84M34.6667 32H69.3333M13 12H91M47.6667 52C45.0955 52 42.5821 52.7038 40.4443 54.0224C38.3064 55.3409 36.6402 57.2151 35.6562 59.4078C34.6723 61.6005 34.4149 64.0133 34.9165 66.3411C35.4181 68.6689 36.6562 70.807 38.4743 72.4853C40.2924 74.1635 42.6087 75.3064 45.1305 75.7694C47.6522 76.2324 50.2661 75.9948 52.6416 75.0866C55.017 74.1783 57.0473 72.6402 58.4758 70.6668C59.9042 68.6934 60.6667 66.3734 60.6667 64C60.6667 60.8174 59.297 57.7651 56.8591 55.5147C54.4211 53.2643 51.1145 52 47.6667 52Z" stroke="black" stroke-width="8" stroke-linecap="round" stroke-linejoin="round"/>
</svg>
