<svg width="122" height="125" viewBox="0 0 122 125" fill="none" xmlns="http://www.w3.org/2000/svg">
<path d="M71.1666 63.8022C67.3963 63.8022 63.7109 62.6569 60.576 60.5106C57.4411 58.3647 54.9981 55.3142 53.5554 51.7453C52.1123 48.1764 51.7351 44.2493 52.4706 40.4606C53.2062 36.6719 55.0214 33.1918 57.6877 30.4603C60.3534 27.7288 63.75 25.8687 67.4477 25.1151C71.1453 24.3614 74.9781 24.7482 78.4617 26.2265C81.9448 27.7048 84.9221 30.2081 87.0165 33.42C89.1113 36.6319 90.2291 40.4081 90.2291 44.271C90.2291 49.451 88.2207 54.4189 84.6461 58.0819C81.071 61.7444 76.2225 63.8022 71.1666 63.8022ZM71.1666 32.5523C68.9045 32.5523 66.6933 33.2395 64.8125 34.5272C62.9316 35.8149 61.4656 37.6451 60.5999 39.7864C59.7342 41.9278 59.5075 44.284 59.9487 46.5572C60.3905 48.8304 61.4793 50.9185 63.079 52.5575C64.6788 54.1965 66.7167 55.3127 68.935 55.7648C71.1539 56.2168 73.4536 55.9845 75.5434 55.0976C77.6336 54.2106 79.4199 52.7085 80.6765 50.7816C81.9331 48.8544 82.6041 46.5888 82.6041 44.271C82.6041 41.163 81.3989 38.1823 79.2542 35.9846C77.109 33.7869 74.1998 32.5523 71.1666 32.5523Z" fill="black"/>
<path d="M106.75 100.261C105.743 100.247 104.781 99.8314 104.068 99.1017C103.356 98.372 102.951 97.3861 102.937 96.3543C102.937 86.1981 97.5491 79.4272 71.1666 79.4272C44.7841 79.4272 39.3958 86.1981 39.3958 96.3543C39.3958 97.3903 38.9941 98.384 38.2791 99.1163C37.5641 99.8491 36.5944 100.261 35.5833 100.261C34.5721 100.261 33.6024 99.8491 32.8874 99.1163C32.1724 98.384 31.7708 97.3903 31.7708 96.3543C31.7708 71.6147 59.3733 71.6147 71.1666 71.6147C82.9599 71.6147 110.562 71.6147 110.562 96.3543C110.549 97.3861 110.144 98.372 109.431 99.1017C108.719 99.8314 107.757 100.247 106.75 100.261Z" fill="black"/>
<path d="M42.2932 68.0211H40.6665C36.622 67.6206 32.8984 65.5903 30.3149 62.3768C27.7315 59.1633 26.4997 55.0299 26.8907 50.8857C27.2817 46.7417 29.2634 42.9266 32.3997 40.2796C35.5361 37.6326 39.5703 36.3705 43.6149 36.7711C44.1335 36.794 44.6421 36.9251 45.1095 37.1564C45.5769 37.3877 45.9933 37.7145 46.3331 38.1164C46.6729 38.5185 46.9291 38.9874 47.0858 39.4944C47.2425 40.0014 47.2965 40.5359 47.2445 41.0651C47.1925 41.5942 47.0356 42.107 46.7834 42.5718C46.5312 43.0366 46.189 43.4438 45.7778 43.7684C45.3665 44.0929 44.895 44.328 44.392 44.4592C43.8889 44.5905 43.365 44.6151 42.8524 44.5315C41.8601 44.4302 40.858 44.5347 39.906 44.839C38.954 45.1433 38.0717 45.641 37.3115 46.3024C36.5395 46.9404 35.8992 47.7296 35.428 48.6238C34.9566 49.518 34.6638 50.4993 34.5665 51.5107C34.4615 52.5346 34.5563 53.57 34.8456 54.556C35.1348 55.5424 35.6127 56.4596 36.2514 57.2544C36.8901 58.0497 37.6769 58.7065 38.5658 59.1867C39.4547 59.6669 40.428 59.9612 41.429 60.0523C43.0839 60.1976 44.7406 59.7961 46.1565 58.9065C47.0194 58.3612 48.0584 58.1888 49.0451 58.4284C50.0318 58.6674 50.8851 59.2987 51.4178 60.1825C51.9506 61.0669 52.1183 62.1315 51.885 63.1424C51.6512 64.1534 51.0351 65.0278 50.1724 65.5732C47.8147 67.1138 45.089 67.9607 42.2932 68.0211Z" fill="black"/>
<path d="M15.25 96.354C14.2429 96.3405 13.2809 95.9248 12.5687 95.1952C11.8566 94.4655 11.4507 93.4795 11.4375 92.4478C11.4375 78.3853 15.0975 69.0103 33.0417 69.0103C34.0528 69.0103 35.0225 69.4217 35.7375 70.1545C36.4525 70.8868 36.8542 71.8806 36.8542 72.9165C36.8542 73.9524 36.4525 74.9462 35.7375 75.6785C35.0225 76.4113 34.0528 76.8228 33.0417 76.8228C21.0958 76.8228 19.0625 80.729 19.0625 92.4478C19.0493 93.4795 18.6434 94.4655 17.9313 95.1952C17.2191 95.9248 16.2571 96.3405 15.25 96.354Z" fill="black"/>
</svg>
